<svg width="153" height="40" viewBox="0 0 153 40" fill="none" xmlns="http://www.w3.org/2000/svg">
<g clip-path="url(#clip0_800_13718)">
<path d="M20.047 9.26576L13.138 35.0474C12.1841 38.6107 8.51863 40.7283 4.95531 39.7716C1.38931 38.8177 -0.725573 35.1522 0.228408 31.5889L7.13738 5.80724C8.09136 2.24124 11.7568 0.126356 15.3228 1.08034C18.8861 2.037 21.001 5.69975 20.047 9.26576Z" fill="white"/>
<path d="M26.0422 2.96141C24.5051 5.09241 21.2374 6.41992 18.4802 2.98291L18.7973 13.912C19.7432 10.8539 20.5844 9.49147 21.1917 9.01851C21.799 8.54287 22.1833 8.4085 23.0163 8.4085C24.2444 8.4085 24.7792 8.74979 26.233 10.6739L27.5793 2.4777C27.5793 2.4777 27.5793 0.833091 26.0422 2.96141Z" fill="white"/>
<path d="M31.5914 13.3665C35.2825 13.3665 38.2747 10.3743 38.2747 6.68324C38.2747 2.99219 35.2825 0 31.5914 0C27.9004 0 24.9082 2.99219 24.9082 6.68324C24.9082 10.3743 27.9004 13.3665 31.5914 13.3665Z" fill="white"/>
<path d="M55.4007 13.7803C56.2338 13.3262 57.263 13.1005 58.4911 13.1005V14.8418L58.0611 14.8176C56.6664 14.8176 55.5727 15.2476 54.7827 16.1048C53.9926 16.9621 53.5976 18.166 53.5976 19.7111V26.4696H51.8079V13.1999H53.5223V15.7985C53.9416 14.909 54.5677 14.2345 55.4007 13.7803Z" fill="white"/>
<path d="M65.6526 9.92144C65.4 9.66883 65.2737 9.36786 65.2737 9.01314C65.2737 8.67723 65.4 8.38163 65.6526 8.12903C65.9052 7.87642 66.2169 7.75012 66.5851 7.75012C66.9559 7.75012 67.2649 7.87105 67.5175 8.11559C67.7701 8.36013 67.8964 8.65036 67.8964 8.98627C67.8964 9.35711 67.7701 9.66615 67.5175 9.91875C67.2649 10.1714 66.9532 10.2977 66.5851 10.2977C66.2169 10.3003 65.9052 10.174 65.6526 9.92144ZM65.6795 13.1999H67.4692V26.4696H65.6795V13.1999Z" fill="white"/>
<path d="M85.783 24.9809V26.4697H74.9883V25.2846L83.3376 14.7156H75.1388V13.2026H85.6325V14.3877L77.2832 24.9809H85.783V24.9809Z" fill="white"/>
<path d="M95.0138 25.7253C93.9873 25.1448 93.1811 24.3413 92.5926 23.3175C92.0041 22.2909 91.7085 21.1327 91.7085 19.8374C91.7085 18.5422 92.0014 17.3813 92.5926 16.3574C93.1811 15.3309 93.9873 14.5328 95.0138 13.9604C96.0404 13.388 97.1905 13.1031 98.4697 13.1031C99.7461 13.1031 100.899 13.388 101.925 13.9604C102.952 14.5328 103.756 15.3309 104.333 16.3574C104.914 17.384 105.204 18.5449 105.204 19.8374C105.204 21.1327 104.914 22.2936 104.333 23.3175C103.753 24.344 102.949 25.1448 101.925 25.7253C100.899 26.3057 99.7488 26.5959 98.4697 26.5959C97.1905 26.5959 96.0404 26.3057 95.0138 25.7253ZM101.004 24.3628C101.751 23.9329 102.337 23.3255 102.756 22.5355C103.175 21.7454 103.387 20.8452 103.387 19.8374C103.387 18.8297 103.178 17.9295 102.756 17.1394C102.337 16.3494 101.751 15.7394 101.004 15.3094C100.254 14.8794 99.4102 14.6671 98.4697 14.6671C97.5291 14.6671 96.6826 14.8821 95.9356 15.3094C95.1858 15.7394 94.6 16.3467 94.17 17.1394C93.7401 17.9295 93.5278 18.8297 93.5278 19.8374C93.5278 20.8452 93.7428 21.7454 94.17 22.5355C94.6 23.3255 95.1885 23.9355 95.9356 24.3628C96.6826 24.7928 97.5291 25.0051 98.4697 25.0051C99.4102 25.0051 100.257 24.7901 101.004 24.3628Z" fill="white"/>
<path d="M132.205 14.5382C133.157 15.4975 133.63 16.9083 133.63 18.776V26.4696H131.84V18.9533C131.84 17.5748 131.507 16.524 130.843 15.8012C130.179 15.0783 129.241 14.7155 128.029 14.7155C126.651 14.7155 125.565 15.1401 124.775 15.9893C123.985 16.8385 123.59 18.0101 123.59 19.5069V26.4696H121.8V18.9533C121.8 17.5748 121.467 16.524 120.803 15.8012C120.14 15.0783 119.194 14.7155 117.966 14.7155C116.603 14.7155 115.523 15.1401 114.725 15.9893C113.927 16.8385 113.526 18.0101 113.526 19.5069V26.4696H111.734V13.1999H113.448V15.6211C113.919 14.8149 114.574 14.1915 115.415 13.7535C116.257 13.3154 117.224 13.0978 118.315 13.0978C119.425 13.0978 120.387 13.3343 121.204 13.8045C122.018 14.2748 122.628 14.9735 123.031 15.8979C123.518 15.0245 124.222 14.3393 125.138 13.8422C126.054 13.3477 127.102 13.0978 128.279 13.0978C129.948 13.1005 131.257 13.5788 132.205 14.5382Z" fill="white"/>
<path d="M151.086 14.3984C152.011 15.2637 152.473 16.5455 152.473 18.2439V26.4669H150.758V24.3977C150.355 25.0884 149.761 25.6258 148.979 26.0128C148.198 26.3998 147.268 26.5932 146.193 26.5932C144.712 26.5932 143.535 26.2412 142.662 25.5345C141.788 24.8277 141.35 23.8952 141.35 22.7343C141.35 21.6084 141.759 20.7001 142.573 20.0094C143.387 19.3188 144.688 18.9748 146.47 18.9748H150.681V18.1687C150.681 17.0266 150.361 16.1559 149.721 15.5593C149.082 14.9627 148.149 14.6645 146.921 14.6645C146.08 14.6645 145.274 14.8042 144.5 15.081C143.726 15.3578 143.062 15.742 142.506 16.2284L141.7 14.8929C142.372 14.3205 143.18 13.8798 144.121 13.568C145.061 13.2563 146.056 13.1005 147.098 13.1005C148.832 13.1005 150.162 13.5331 151.086 14.3984ZM149.068 24.4891C149.791 24.0269 150.328 23.3578 150.683 22.4844V20.3158H146.521C144.25 20.3158 143.116 21.1058 143.116 22.686C143.116 23.4599 143.409 24.0699 144 24.5133C144.588 24.9594 145.413 25.1824 146.472 25.1824C147.48 25.1824 148.345 24.9513 149.068 24.4891Z" fill="white"/>
</g>
<defs>
<clipPath id="clip0_800_13718">
<rect width="152.473" height="40" fill="white"/>
</clipPath>
</defs>
</svg>
